<svg xmlns="http://www.w3.org/2000/svg" width="24" height="24" fill="white" viewBox="0 0 24 24">
  <path d="M20.447 20.452H16.91v-5.569c0-1.328-.027-3.041-1.851-3.041-1.854 0-2.14 1.445-2.14 2.939v5.671H9.374V9h3.405v1.561h.048c.474-.899 1.635-1.848 3.362-1.848 3.593 0 4.257 2.363 4.257 5.438v6.301zM5.337 7.433c-1.092 0-1.977-.885-1.977-1.977s.885-1.977 1.977-1.977c1.093 0 1.978.885 1.978 1.977s-.885 1.977-1.978 1.977zM7.119 20.452H3.554V9h3.565v11.452zM22.225 0H1.771C.791 0 0 .774 0 1.729v20.542C0 23.225.791 24 1.771 24h20.451c.981 0 1.771-.775 1.771-1.729V1.729C24 .774 23.207 0 22.225 0z"/>
</svg>
